<svg xmlns="http://www.w3.org/2000/svg" width="400" height="400" viewBox="0 0 400 400">
  <!-- Background -->
  <rect width="400" height="400" fill="#f8f9fa"/>
  
  <!-- Jacket base -->
  <path d="M120 100 L280 100 L290 120 L290 300 L280 320 L120 320 L110 300 L110 120 Z" fill="#4a6b8a" stroke="#2c4961" stroke-width="2"/>
  
  <!-- Jacket collar -->
  <path d="M120 100 L160 80 L240 80 L280 100 L250 110 L200 95 L150 110 Z" fill="#5a7b9a" stroke="#2c4961" stroke-width="1.5"/>
  
  <!-- Front opening -->
  <line x1="200" y1="110" x2="200" y2="320" stroke="#2c4961" stroke-width="3"/>
  
  <!-- Pockets -->
  <rect x="130" y="180" width="50" height="40" rx="5" fill="#3d5a77" stroke="#2c4961" stroke-width="1"/>
  <rect x="220" y="180" width="50" height="40" rx="5" fill="#3d5a77" stroke="#2c4961" stroke-width="1"/>
  
  <!-- Buttons -->
  <circle cx="185" cy="130" r="4" fill="#8b4513"/>
  <circle cx="185" cy="150" r="4" fill="#8b4513"/>
  <circle cx="185" cy="170" r="4" fill="#8b4513"/>
  <circle cx="185" cy="190" r="4" fill="#8b4513"/>
  <circle cx="185" cy="210" r="4" fill="#8b4513"/>
  
  <!-- Seam lines -->
  <line x1="130" y1="110" x2="130" y2="320" stroke="#2c4961" stroke-width="1" opacity="0.7"/>
  <line x1="270" y1="110" x2="270" y2="320" stroke="#2c4961" stroke-width="1" opacity="0.7"/>
  
  <!-- Sleeve suggestion -->
  <ellipse cx="110" cy="160" rx="15" ry="50" fill="#4a6b8a" stroke="#2c4961" stroke-width="1"/>
  <ellipse cx="290" cy="160" rx="15" ry="50" fill="#4a6b8a" stroke="#2c4961" stroke-width="1"/>
  
  <!-- Subtle texture -->
  <pattern id="denim" patternUnits="userSpaceOnUse" width="4" height="4">
    <rect width="4" height="4" fill="#4a6b8a"/>
    <circle cx="2" cy="2" r="0.5" fill="#5a7b9a" opacity="0.3"/>
  </pattern>
  <rect x="120" y="100" width="160" height="220" fill="url(#denim)" opacity="0.3"/>
</svg>