<svg xmlns="http://www.w3.org/2000/svg" width="400" height="400" viewBox="0 0 400 400">
  <!-- Background -->
  <rect width="400" height="400" fill="#f8f9fa"/>
  
  <!-- Sweater body -->
  <path d="M120 120 L280 120 L290 140 L290 300 L280 320 L120 320 L110 300 L110 140 Z" fill="#4a4a4a" stroke="#363636" stroke-width="2"/>
  
  <!-- Neckline -->
  <ellipse cx="200" cy="120" rx="40" ry="15" fill="#f8f9fa"/>
  <ellipse cx="200" cy="120" rx="35" ry="12" fill="#4a4a4a" stroke="#363636" stroke-width="1"/>
  
  <!-- V-neck detail -->
  <path d="M185 105 L200 125 L215 105" stroke="#363636" stroke-width="2" fill="none"/>
  
  <!-- Sleeves -->
  <ellipse cx="110" cy="180" rx="20" ry="60" fill="#4a4a4a" stroke="#363636" stroke-width="2"/>
  <ellipse cx="290" cy="180" rx="20" ry="60" fill="#4a4a4a" stroke="#363636" stroke-width="2"/>
  
  <!-- Ribbed cuffs -->
  <rect x="95" y="230" width="30" height="15" fill="#363636" stroke="#2a2a2a" stroke-width="1"/>
  <rect x="275" y="230" width="30" height="15" fill="#363636" stroke="#2a2a2a" stroke-width="1"/>
  
  <!-- Ribbed bottom hem -->
  <rect x="120" y="305" width="160" height="15" fill="#363636" stroke="#2a2a2a" stroke-width="1"/>
  
  <!-- Ribbed lines on cuffs -->
  <line x1="98" y1="233" x2="122" y2="233" stroke="#2a2a2a" stroke-width="0.5"/>
  <line x1="98" y1="237" x2="122" y2="237" stroke="#2a2a2a" stroke-width="0.5"/>
  <line x1="98" y1="241" x2="122" y2="241" stroke="#2a2a2a" stroke-width="0.5"/>
  
  <line x1="278" y1="233" x2="302" y2="233" stroke="#2a2a2a" stroke-width="0.5"/>
  <line x1="278" y1="237" x2="302" y2="237" stroke="#2a2a2a" stroke-width="0.5"/>
  <line x1="278" y1="241" x2="302" y2="241" stroke="#2a2a2a" stroke-width="0.5"/>
  
  <!-- Ribbed lines on bottom hem -->
  <line x1="125" y1="308" x2="275" y2="308" stroke="#2a2a2a" stroke-width="0.5"/>
  <line x1="125" y1="312" x2="275" y2="312" stroke="#2a2a2a" stroke-width="0.5"/>
  <line x1="125" y1="316" x2="275" y2="316" stroke="#2a2a2a" stroke-width="0.5"/>
  
  <!-- Wool texture pattern -->
  <pattern id="wool" patternUnits="userSpaceOnUse" width="6" height="6">
    <rect width="6" height="6" fill="#4a4a4a"/>
    <circle cx="2" cy="2" r="0.8" fill="#5a5a5a" opacity="0.6"/>
    <circle cx="4" cy="4" r="0.6" fill="#3a3a3a" opacity="0.4"/>
    <circle cx="1" cy="5" r="0.5" fill="#5a5a5a" opacity="0.3"/>
  </pattern>
  <rect x="120" y="120" width="160" height="185" fill="url(#wool)" opacity="0.5"/>
  
  <!-- Knit pattern vertical lines -->
  <g opacity="0.3">
    <line x1="140" y1="140" x2="140" y2="300" stroke="#5a5a5a" stroke-width="0.5"/>
    <line x1="160" y1="140" x2="160" y2="300" stroke="#5a5a5a" stroke-width="0.5"/>
    <line x1="180" y1="140" x2="180" y2="300" stroke="#5a5a5a" stroke-width="0.5"/>
    <line x1="200" y1="140" x2="200" y2="300" stroke="#5a5a5a" stroke-width="0.5"/>
    <line x1="220" y1="140" x2="220" y2="300" stroke="#5a5a5a" stroke-width="0.5"/>
    <line x1="240" y1="140" x2="240" y2="300" stroke="#5a5a5a" stroke-width="0.5"/>
    <line x1="260" y1="140" x2="260" y2="300" stroke="#5a5a5a" stroke-width="0.5"/>
  </g>
  
  <!-- Subtle shading -->
  <linearGradient id="shade" x1="0%" y1="0%" x2="100%" y2="0%">
    <stop offset="0%" style="stop-color:#363636;stop-opacity:0.1"/>
    <stop offset="50%" style="stop-color:#5a5a5a;stop-opacity:0.05"/>
    <stop offset="100%" style="stop-color:#363636;stop-opacity:0.1"/>
  </linearGradient>
  <rect x="120" y="120" width="160" height="185" fill="url(#shade)"/>
</svg>